<?xml version="1.0" encoding="UTF-8"?>
<svg width="152px" height="238px" viewBox="0 0 152 238" version="1.1" xmlns="http://www.w3.org/2000/svg" xmlns:xlink="http://www.w3.org/1999/xlink">
    <!-- Generator: Sketch 64 (93537) - https://sketch.com -->
    <title>logo/dark</title>
    <desc>Created with Sketch.</desc>
    <g id="Icons" stroke="none" stroke-width="1" fill="none" fill-rule="evenodd">
        <g id="logo/dark" transform="translate(0.000000, 1.000000)">
            <g id="Group-51" transform="translate(0.000000, -1.000000)">
                <path d="M10.1308336,237.67698 C4.55917664,237.67698 0.000446715327,233.410853 0.000446715327,228.197858 L0.000446715327,10.1561024 C0.000446715327,4.94310777 4.55917664,0.676980263 10.1308336,0.676980263 L141.823629,0.676980263 C147.395286,0.676980263 151.952899,4.94310777 151.952899,10.1561024 L151.952899,228.197858 C151.952899,233.410853 147.395286,237.67698 141.823629,237.67698 L10.1308336,237.67698 Z" id="Fill-1" fill="#9D0933"></path>
                <g id="Group-3" transform="translate(33.000000, 216.000000)"></g>
                <polygon id="Fill-4" fill="#FEFEFE" points="17 140 23 140 23 141.340756 18.5258083 141.340756 18.5258083 144.957894 22.3363585 144.957894 22.3363585 146.296328 18.5258083 146.296328 18.5258083 151 17 151"></polygon>
                <polygon id="Fill-6" fill="#FEFEFE" points="25 140 30.763389 140 30.763389 141.340756 26.3917686 141.340756 26.3917686 144.78493 29.9471328 144.78493 29.9471328 146.124525 26.3917686 146.124525 26.3917686 149.660405 31 149.660405 31 151 25 151"></polygon>
                <path d="M37.4504471,149.660264 C39.8681073,149.660264 41.4485842,148.195145 41.4485842,145.484327 C41.4485842,142.788602 39.8535768,141.339736 37.4504471,141.339736 L35.5055887,141.339736 L35.5055887,149.660264 L37.4504471,149.660264 Z M34,140 L37.5566319,140 C40.8405365,140 43,142.009604 43,145.484327 C43,148.975303 40.8405365,151 37.5566319,151 L34,151 L34,140 Z" id="Fill-8" fill="#FEFEFE"></path>
                <polygon id="Fill-10" fill="#FEFEFE" points="46 140 51.7613636 140 51.7613636 141.340756 47.3915289 141.340756 47.3915289 144.78493 50.947314 144.78493 50.947314 146.124525 47.3915289 146.124525 47.3915289 149.660405 52 149.660405 52 151 46 151"></polygon>
                <path d="M57.7744534,145.281764 C58.976985,145.281764 59.7272727,144.520262 59.7272727,143.286302 C59.7272727,142.479527 59.4165708,141.901435 58.849252,141.588012 C58.5546605,141.434783 58.1956272,141.339595 57.3325662,141.339595 L55.547756,141.339595 L55.547756,145.281764 L57.7744534,145.281764 Z M54,140 L57.3774453,140 C58.5373993,140 59.0264672,140.092866 59.447641,140.250739 C60.5742232,140.669797 61.3084005,141.777227 61.3084005,143.224778 C61.3084005,144.629379 60.5258918,145.811102 59.3222094,146.203461 L59.3222094,146.23016 C59.3222094,146.23016 59.447641,146.372942 59.6467204,146.731638 L62,151 L60.2451093,151 L57.9113924,146.621359 L55.547756,146.621359 L55.547756,151 L54,151 L54,140 Z" id="Fill-12" fill="#FEFEFE"></path>
                <path d="M67.4821622,141.513559 C67.4821622,141.513559 67.2486486,142.508283 67.0745946,143.071225 L65.9113514,146.560304 L69.0583784,146.560304 L67.9113514,143.071225 C67.7340541,142.508283 67.5145946,141.513559 67.5145946,141.513559 L67.4821622,141.513559 Z M69.4410811,147.837079 L65.5286486,147.837079 L64.4994595,151 L63,151 L66.7351351,140 L68.2659459,140 L72,151 L70.4821622,151 L69.4410811,147.837079 Z" id="Fill-14" fill="#FEFEFE"></path>
                <polygon id="Fill-16" fill="#FEFEFE" points="75.7343927 141.340756 72 141.340756 72 140 81 140 81 141.340756 77.262202 141.340756 77.262202 151 75.7343927 151"></polygon>
                <polygon id="Fill-18" fill="#FEFEFE" points="82 151 84 151 84 140 82 140"></polygon>
                <path d="M92.5078093,149.62893 C94.6899594,149.62893 96.4515213,147.819927 96.4515213,145.422519 C96.4515213,143.103716 94.6899594,141.356472 92.5078093,141.356472 C90.323428,141.356472 88.5473631,143.103716 88.5473631,145.422519 C88.5473631,147.819927 90.323428,149.62893 92.5078093,149.62893 M92.5078093,140 C95.6025355,140 98,142.365966 98,145.422519 C98,148.5588 95.6025355,151 92.5078093,151 C89.4130832,151 87,148.5588 87,145.422519 C87,142.365966 89.4130832,140 92.5078093,140" id="Fill-20" fill="#FEFEFE"></path>
                <path d="M100,140 L101.561093,140 L106.561744,147.153018 C106.977489,147.74504 107.499805,148.739869 107.499805,148.739869 L107.534938,148.739869 C107.534938,148.739869 107.422511,147.75897 107.422511,147.153018 L107.422511,140 L109,140 L109,151 L107.454131,151 L102.435914,143.864394 C102.023682,143.257282 101.497853,142.261292 101.497853,142.261292 L101.466233,142.261292 C101.466233,142.261292 101.577489,143.243352 101.577489,143.864394 L101.577489,151 L100,151 L100,140 Z" id="Fill-21" fill="#FEFEFE"></path>
                <path d="M121.507254,149.62893 C123.694532,149.62893 125.455514,147.819927 125.455514,145.422519 C125.455514,143.103716 123.694532,141.356472 121.507254,141.356472 C119.31886,141.356472 117.545602,143.103716 117.545602,145.422519 C117.545602,147.819927 119.31886,149.62893 121.507254,149.62893 M121.507254,140 C124.602922,140 127,142.365966 127,145.422519 C127,148.5588 124.602922,151 121.507254,151 C118.41047,151 116,148.5588 116,145.422519 C116,142.365966 118.41047,140 121.507254,140" id="Fill-22" fill="#FEFEFE"></path>
                <polygon id="Fill-23" fill="#FEFEFE" points="129 140 135 140 135 141.340756 130.527767 141.340756 130.527767 144.957894 134.338119 144.957894 134.338119 146.296328 130.527767 146.296328 130.527767 151 129 151"></polygon>
                <path d="M16.8149691,157 L22.6707713,157 L25.8755322,166.294288 C26.3677272,167.708111 26.9851682,169.924492 26.9851682,169.924492 L27.0433967,169.924492 C27.0433967,169.924492 27.6619364,167.708111 28.1530327,166.294288 L31.3566949,157 L37.2124971,157 L39,179 L33.6067292,179 L32.9299611,169.093349 C32.8058137,167.431063 32.9299611,165.402679 32.9299611,165.402679 L32.8673381,165.402679 C32.8673381,165.402679 32.1279469,167.708111 31.6357519,169.093349 L29.3252918,175.462146 L24.7032731,175.462146 L22.3917144,169.093349 C21.900618,167.708111 21.1612268,165.402679 21.1612268,165.402679 L21.0986038,165.402679 C21.0986038,165.402679 21.2216526,167.431063 21.0986038,169.093349 L20.420737,179 L15,179 L16.8149691,157 Z" id="Fill-24" fill="#FEFEFE"></path>
                <path d="M51.4670321,162.015692 C51.4670321,162.015692 50.9663669,164.416892 50.5584588,165.8 L49.2732691,170.07906 L53.6920866,170.07906 L52.4404236,165.8 C52.031398,164.416892 51.5307328,162.015692 51.5307328,162.015692 L51.4670321,162.015692 Z M54.9772764,174.384508 L47.9880794,174.384508 L46.6414241,179 L41,179 L48.6150285,157 L54.3805013,157 L62,179 L56.3574584,179 L54.9772764,174.384508 Z" id="Fill-25" fill="#FEFEFE"></path>
                <path d="M65.8681449,172.685862 C65.8681449,172.685862 68.3948704,174.988976 71.2040731,174.988976 C72.3250851,174.988976 73.5395148,174.553041 73.5395148,173.215211 C73.5395148,170.570689 63.4960033,170.665216 63.4960033,163.817039 C63.4960033,159.706798 66.9580177,157 71.3875721,157 C76.1919094,157 78.5607145,159.519969 78.5607145,159.519969 L76.2552999,163.969394 C76.2552999,163.969394 74.0088274,162.009912 71.3264058,162.009912 C70.2031695,162.009912 68.9564885,162.508123 68.9564885,163.752538 C68.9564885,166.553863 79,166.055652 79,173.089546 C79,176.793879 76.1618823,180 71.1373462,180 C65.898172,180 63,176.826129 63,176.826129 L65.8681449,172.685862 Z" id="Fill-26" fill="#FEFEFE"></path>
                <polygon id="Fill-27" fill="#FEFEFE" points="86.7695011 161.614393 80 161.614393 80 157 99 157 99 161.614393 92.2304989 161.614393 92.2304989 179 86.7695011 179"></polygon>
                <polygon id="Fill-28" fill="#FEFEFE" points="101 157 114.574284 157 114.574284 161.615262 106.303079 161.615262 106.303079 165.615961 112.908158 165.615961 112.908158 170.230123 106.303079 170.230123 106.303079 174.384738 115 174.384738 115 179 101 179"></polygon>
                <path d="M126.802661,166.970915 C128.543237,166.970915 129.631929,166.015492 129.631929,164.261869 C129.631929,162.6006 129.012195,161.616592 126.277162,161.616592 L124.441242,161.616592 L124.441242,166.970915 L126.802661,166.970915 Z M119,157 L126.742794,157 C129.012195,157 130.100887,157.153923 131.062084,157.523338 C133.583149,158.477661 135.168514,160.723838 135.168514,163.923238 C135.168514,166.262869 134.04878,168.815792 131.840355,169.925137 L131.840355,169.985607 C131.840355,169.985607 132.150776,170.384708 132.678492,171.308246 L137,179 L130.937916,179 L126.991131,171.586407 L124.441242,171.586407 L124.441242,179 L119,179 L119,157 Z" id="Fill-29" fill="#FEFEFE"></path>
                <path d="M22.3255814,201.014838 C23.6613571,201.014838 24.3158649,200.086771 24.3158649,199.021129 C24.3158649,197.95887 23.6881172,197.082676 22.3512265,197.082676 L19.5793246,197.082676 L19.5793246,201.014838 L22.3255814,201.014838 Z M21.9330997,193.362514 C23.0871297,193.362514 23.5810768,192.511128 23.5810768,191.60787 C23.5810768,190.730548 23.0871297,189.98629 21.8561644,189.98629 L19.5793246,189.98629 L19.5793246,193.362514 L21.9330997,193.362514 Z M15,186 L21.8829245,186 C25.6226505,186 28.2440268,187.699389 28.2440268,190.969612 C28.2440268,192.564128 27.4835935,194.184581 26.0697674,195.008903 L26.0697674,195.060775 C28.2150366,195.726097 29,197.665677 29,199.341385 C29,203.485548 25.6014654,205 21.8829245,205 L15,205 L15,186 Z" id="Fill-30" fill="#FEFEFE"></path>
                <path d="M32,186 L36.6820093,186 L36.6820093,197.813178 C36.6820093,199.772616 37.9930175,200.819423 40.00057,200.819423 C42.0092626,200.819423 43.3191307,199.772616 43.3191307,197.813178 L43.3191307,186 L48,186 L48,197.813178 C48,202.01926 44.8444603,205 40.0279302,205 C35.1589597,205 32,202.01926 32,197.813178 L32,186 Z" id="Fill-31" fill="#FEFEFE"></path>
                <polygon id="Fill-32" fill="#FEFEFE" points="51 205 56 205 56 186 51 186"></polygon>
                <polygon id="Fill-33" fill="#FEFEFE" points="59 186 63.4967153 186 63.4967153 201.013947 71 201.013947 71 205 59 205"></polygon>
                <path d="M80.3437714,201.014838 C83.4494735,201.014838 85.3518392,199.101193 85.3518392,195.461096 C85.3518392,191.846935 83.3728976,189.98629 80.3437714,189.98629 L78.492821,189.98629 L78.492821,201.014838 L80.3437714,201.014838 Z M74,186 L80.5231779,186 C86.302475,186 90,189.479969 90,195.461096 C90,201.441094 86.302475,205 80.5231779,205 L74,205 L74,186 Z" id="Fill-34" fill="#FEFEFE"></path>
                <polygon id="Fill-35" fill="#FEFEFE" points="92 186 103.635928 186 103.635928 189.986053 96.5437108 189.986053 96.5437108 193.442136 102.207304 193.442136 102.207304 197.427062 96.5437108 197.427062 96.5437108 201.013947 104 201.013947 104 205 92 205"></polygon>
                <path d="M114.502061,194.610326 C115.954813,194.610326 116.861127,193.788309 116.861127,192.272819 C116.861127,190.837389 116.338976,189.986053 114.061598,189.986053 L112.532676,189.986053 L112.532676,194.610326 L114.502061,194.610326 Z M108,186 L114.449073,186 C116.338976,186 117.247498,186.133056 118.055564,186.454421 C120.151899,187.277567 121.471077,189.214777 121.471077,191.978516 C121.471077,194.000297 120.540477,196.204748 118.70025,197.162077 L118.70025,197.215074 C118.70025,197.215074 118.957462,197.560119 119.400132,198.356202 L123,205 L117.948484,205 L114.659921,198.595252 L112.532676,198.595252 L112.532676,205 L108,205 L108,186 Z" id="Fill-36" fill="#FEFEFE"></path>
                <path d="M126.329679,198.958314 C126.329679,198.958314 128.381913,200.859842 130.663013,200.859842 C131.573078,200.859842 132.563029,200.499828 132.563029,199.393604 C132.563029,197.20952 124.404833,197.288068 124.404833,191.630397 C124.404833,188.238631 127.217074,186 130.81631,186 C134.716741,186 136.645906,188.081534 136.645906,188.081534 L134.76856,191.758039 C134.76856,191.758039 132.943033,190.140158 130.765571,190.140158 C129.851188,190.140158 128.837485,190.551447 128.837485,191.579123 C128.837485,193.891938 137,193.48065 137,199.292145 C137,202.35008 134.691912,205 130.614433,205 C126.35343,205 124,202.377354 124,202.377354 L126.329679,198.958314 Z" id="Fill-37" fill="#FEFEFE"></path>
                <path d="M82.5005,106 C82.1705,106 82.0115,106.214876 82.0115,107 C82.0115,107.784206 82.1335,108 82.5005,108 C82.8305,108 82.9885,107.784206 82.9885,107 C82.9885,106.214876 82.8665,106 82.5005,106" id="Fill-38" fill="#FEFEFE"></path>
                <path d="M112.659771,58.3743289 C111.79971,58.3743289 111.1,59.1707024 111.1,60.1430576 L111.1,97.2629703 C111.1,98.2364394 110.29937,99.031699 109.318206,99.031699 L83.9559531,99.031699 C82.9770316,99.031699 82.1764017,98.2364394 82.1764017,97.2629703 L82.1764017,80.4667305 C82.1764017,79.4943753 81.376893,78.6991156 80.3968502,78.6991156 L70.6065138,78.6991156 C69.6275923,78.6991156 68.8280837,79.4943753 68.8280837,80.4667305 L68.8280837,97.2629703 C68.8280837,98.2364394 68.025211,99.031699 67.0451682,99.031699 L41.6806728,99.031699 C40.7017513,99.031699 39.8977573,98.2364394 39.8977573,97.2629703 L39.8977573,60.1430576 C39.8977573,59.1707024 39.1958045,58.3743289 38.3402293,58.3743289 C37.4812902,58.3743289 37.4711982,57.9766991 38.3200454,57.4899646 L38.3581706,57.469916 C39.2070178,56.9820677 40.5918609,56.186808 41.4418294,55.7000735 L73.9581706,37.053797 C74.8070178,36.5670624 76.1941036,36.5670624 77.0429507,37.053797 L112.678833,57.4899646 C113.526559,57.9766991 113.51871,58.3743289 112.659771,58.3743289 L112.659771,58.3743289 Z M94.7184831,111.419483 L92.7595187,111.419483 L92.7595187,106.377269 L91.348885,106.377269 L91.348885,105.163218 C92.5487086,105.153193 93.0533073,104.912611 93.306728,104.011539 L94.7184831,104.011539 L94.7184831,111.419483 Z M90.7680358,110.03836 L90.1143001,110.03836 L90.1143001,111.419483 L88.2809248,111.419483 L88.2809248,110.03836 L85.6267355,110.03836 L85.6267355,108.573701 L87.9871362,104.159676 L90.1143001,104.159676 L90.1143001,108.636074 L90.7680358,108.636074 L90.7680358,110.03836 Z M84.8350762,107.988951 C84.8350762,110.268918 84.4863424,111.565392 82.2649868,111.565392 C80.3374197,111.565392 79.9169208,110.645385 79.9068288,109.660778 L81.7368401,109.660778 C81.7480534,109.914727 81.7895426,110.090709 81.8848557,110.206545 C81.9700769,110.311243 82.0967872,110.352454 82.2728361,110.352454 C82.5598967,110.352454 82.8110747,110.123009 82.8110747,109.660778 L82.8110747,108.480141 L82.7886481,108.480141 C82.6215699,108.825422 82.1068792,109.054866 81.5372433,109.054866 C80.474222,109.054866 79.7588132,108.543628 79.7588132,106.806086 C79.7588132,104.796774 80.6525135,104.011539 82.2537735,104.011539 C83.9593171,104.011539 84.8350762,104.755563 84.8350762,107.172529 L84.8350762,107.988951 Z M78.2820209,111.419483 L76.3208139,111.419483 L76.3208139,106.377269 L74.9113015,106.377269 L74.9113015,105.163218 C76.1100038,105.153193 76.6168452,104.912611 76.8702658,104.011539 L78.2820209,104.011539 L78.2820209,111.419483 Z M70.8733904,111.419483 L72.6428499,111.419483 L72.6428499,109.348912 L70.8733904,109.348912 L70.8733904,111.419483 Z M69.999874,107.02662 L69.2519466,107.02662 L69.2519466,109.725379 C69.2519466,110.048384 69.3988409,110.16422 69.7027214,110.16422 L69.999874,110.16422 L69.999874,111.419483 C69.6511402,111.460694 69.2822225,111.481856 68.96825,111.481856 C67.8076729,111.481856 67.3557767,111.293622 67.3557767,110.03836 L67.3557767,107.02662 L66.7233464,107.02662 L66.7233464,105.759105 L67.3557767,105.759105 L67.3557767,104.097302 L69.2519466,104.097302 L69.2519466,105.759105 L69.999874,105.759105 L69.999874,107.02662 Z M63.7619126,111.565392 C62.1718659,111.565392 61.5282223,110.897106 61.5282223,109.660778 L63.193398,109.660778 C63.193398,109.881313 63.2348872,110.090709 63.3302003,110.216569 C63.4243921,110.342429 63.5611944,110.415941 63.7282726,110.415941 C64.0243039,110.415941 64.2777246,110.236618 64.2777246,109.933662 C64.2777246,108.93012 61.5282223,109.526007 61.5282223,107.381925 C61.5282223,106.387294 62.2548444,105.613196 63.7944311,105.613196 C65.2140355,105.613196 65.931687,106.210198 65.931687,107.391949 L64.2866952,107.391949 C64.2866952,106.910784 64.0971904,106.763761 63.7820965,106.763761 C63.4972786,106.763761 63.2976817,106.930832 63.2976817,107.204829 C63.2976817,108.13486 66.0471841,107.508899 66.0471841,109.671916 C66.0471841,110.770132 65.1938516,111.565392 63.7619126,111.565392 L63.7619126,111.565392 Z M60.8296334,111.419483 L56.2815169,111.419483 L56.2815169,103.95028 L60.7343203,103.95028 L60.7343203,105.540799 L58.23936,105.540799 L58.23936,106.818338 L60.577334,106.818338 L60.577334,108.344256 L58.23936,108.344256 L58.23936,109.830077 L60.8296334,109.830077 L60.8296334,111.419483 Z M116.91522,49.7122363 L78.5825375,27.7301018 C76.8893285,26.7566327 74.1140355,26.7566327 72.4174625,27.7301018 L34.0836588,49.7122363 C32.3870858,50.6845916 31,53.0714843 31,55.0161948 L31,98.9826914 C31,100.928516 32.3870858,103.314295 34.0836588,104.287764 L72.4174625,126.269898 C74.1140355,127.243367 76.8893285,127.243367 78.5825375,126.269898 L116.91522,104.287764 C118.614036,103.314295 120,100.928516 120,98.9826914 L120,55.0161948 C120,53.0714843 118.614036,50.6845916 116.91522,49.7122363 L116.91522,49.7122363 Z" id="Fill-39" fill="#FEFEFE"></path>
                <polygon id="Fill-40" fill="#FEFEFE" points="88 109 89 109 89 107 88.9837545 107"></polygon>
            </g>
        </g>
    </g>
</svg>